<?xml version="1.0" encoding="utf-8"?>
<!-- Generator: Adobe Illustrator 21.1.0, SVG Export Plug-In . SVG Version: 6.00 Build 0)  -->
<svg version="1.1" id="OBJECTS" xmlns="http://www.w3.org/2000/svg" xmlns:xlink="http://www.w3.org/1999/xlink" x="0px" y="0px"
	 viewBox="0 0 117.4 117.4" style="enable-background:new 0 0 117.4 117.4;" xml:space="preserve">
<style type="text/css">
	.st0{fill:#86DBF2;}
	.st1{fill:#0B7EB7;}
</style>
<g>
	<circle class="st0" cx="58.7" cy="58.7" r="58.7"/>
	<path class="st1" d="M106.7,92.5c-0.9-2.8-2-5.2-3.4-7c-3.7-5-27-12.4-28.1-13.2c-1-0.8-4.3-5.2-4.3-5.2h-0.2v-4.8
		c1.4-1.8,2.5-3.6,3.2-5c0.5-1,0.9-3,1.2-5.6c3.8-1.8,4.3-7.9,4.5-11.4c0.1-2.4-1.5-1.7-2.7-0.9c0.4-1.7,0.8-3.7,1-5.7
		c0.1-0.5,0.1-1,0.2-1.6c0.4-3,0.6-6,0.4-9.1c0.5,0.2,0.9,0.4,1.4,0.6c-1-2.8-2.5-5.4-4.5-7.5c0.4-0.3,0.9-0.6,1.3-0.8
		c-2.1-1.4-4.6-2.3-7.1-2.6c-2.2-1.7-4.8-2.8-7.5-3.5C58,8.1,53.7,8.1,49.4,8c0.2,0.8,0.3,1.5,0.5,2.3c-1.8-1.2-3.8-2.1-6-2.5
		c0.2,1,0.5,1.9,0.7,2.9c-0.9-0.1-1.7-0.3-2.6-0.4c0.2,1,0.4,1.9,0.5,2.9c-0.5-0.2-1.1-0.4-1.6-0.6c0,1.8,0.1,3.7,0.1,5.5
		c-0.4-0.3-0.8-0.6-1.1-0.9c0.9,5.6-1.6,11.2-1,16.8c0.1,1.1,0.4,2.3,0.8,3.3c0.1,0.5,0.3,1.2,0.5,1.8c-1.2-0.7-2.6-1.1-2.5,1.1
		c0.2,3.4,0.6,9.6,4.5,11.4c0.3,2.6,0.7,4.7,1.2,5.6c0.7,1.4,1.7,3.2,3.1,4.9v5h-0.2c0,0-3.3,4.4-4.3,5.2c-1,0.8-24.4,8.2-28.1,13.2
		c-1.3,1.8-2.4,4.2-3.4,7c10.6,15.1,28.2,24.9,48,24.9C78.5,117.4,96.1,107.6,106.7,92.5z"/>
</g>
</svg>
