<?xml version="1.0" encoding="utf-8"?>
<!-- Generator: Adobe Illustrator 21.1.0, SVG Export Plug-In . SVG Version: 6.00 Build 0)  -->
<svg version="1.1" id="Layer_1" xmlns="http://www.w3.org/2000/svg" xmlns:xlink="http://www.w3.org/1999/xlink" x="0px" y="0px"
	 viewBox="0 0 5334 3000.3" style="enable-background:new 0 0 5334 3000.3;" xml:space="preserve">
<style type="text/css">
	.st0{clip-path:url(#SVGID_2_);fill:none;}
	.st1{display:none;opacity:0.1;clip-path:url(#SVGID_2_);}
	.st2{display:none;clip-path:url(#SVGID_2_);fill:#BAFFC9;}
	.st3{display:none;clip-path:url(#SVGID_2_);fill:#FFFFBA;}
	.st4{display:none;clip-path:url(#SVGID_2_);fill:#FFDFBA;}
	.st5{clip-path:url(#SVGID_2_);fill:#00AFFF;}
	.st6{opacity:0.1;clip-path:url(#SVGID_2_);fill:#491D00;}
	.st7{opacity:0.1;clip-path:url(#SVGID_2_);}
</style>
<g>
	<defs>
		<rect id="SVGID_1_" x="0.3" width="5333.7" height="3000.3"/>
	</defs>
	<clipPath id="SVGID_2_">
		<use xlink:href="#SVGID_1_"  style="overflow:visible;"/>
	</clipPath>
	<rect x="0.3" class="st0" width="5333.7" height="3000.3"/>
	<path class="st1" d="M-135.6,891.1C-169,563.2-149.3,230-77.2-91.5C544.9-11.7,1175.1-54.5,1802-76.3
		c1188.9-41.3,2380.5-6.6,3565,103.9c-335.4,309.6-814.7,414.8-1271.2,416.9c-456.4,2.1-908.6-86-1364.6-106.8
		C1706.6,290.9,669.1,595.6-167.4,1189.2C-160.6,1083.7-126.5,979.6-135.6,891.1z"/>
	<path class="st2" d="M-135.6,871.1c-33.5-327.8-13.7-661,58.3-982.6C544.9-31.7,1175.1-74.5,1802-96.3
		c1188.9-41.3,2380.5-6.6,3565,103.9c-335.4,309.6-814.7,414.8-1271.2,416.9c-456.4,2.1-908.6-86-1364.6-106.8
		C1706.6,270.9,669.1,575.6-167.4,1169.2C-160.6,1063.7-126.5,959.6-135.6,871.1z"/>
	<path class="st1" d="M-135.6,693.3c-33.5-327.8-13.7-661,58.3-982.6C544.9-209.5,1175.1-252.3,1802-274
		c1188.9-41.3,2380.5-6.6,3565,103.9c-335.4,309.6-814.7,414.8-1271.2,416.9c-456.4,2.1-908.6-86-1364.6-106.8
		C1706.6,93.1,669.1,397.8-167.4,991.4C-160.6,885.9-126.5,781.8-135.6,693.3z"/>
	<path class="st3" d="M-135.6,673.3c-33.5-327.8-13.7-661,58.3-982.6C544.9-229.5,1175.1-272.3,1802-294
		c1188.9-41.3,2380.5-6.6,3565,103.9c-335.4,309.6-814.7,414.8-1271.2,416.9c-456.4,2.1-908.6-86-1364.6-106.8
		C1706.6,73.1,669.1,377.8-167.4,971.4C-160.6,865.9-126.5,761.8-135.6,673.3z"/>
	<path class="st1" d="M-135.6,453.8c-33.5-327.8-13.7-661,58.3-982.6c622.1,79.8,1252.4,37.1,1879.2,15.3
		c1188.9-41.3,2380.5-6.6,3565,103.9C5031.6-99.9,4552.2,5.3,4095.8,7.4c-456.4,2.1-908.6-86-1364.6-106.8
		C1706.6-146.3,669.1,158.4-167.4,752C-160.6,646.5-126.5,542.4-135.6,453.8z"/>
	<path class="st4" d="M-135.6,433.8c-33.5-327.8-13.7-661,58.3-982.6c622.1,79.8,1252.4,37.1,1879.2,15.3
		c1188.9-41.3,2380.5-6.6,3565,103.9C5031.6-119.9,4552.2-14.7,4095.8-12.6c-456.4,2.1-908.6-86-1364.6-106.8
		C1706.6-166.3,669.1,138.4-167.4,732C-160.6,626.5-126.5,522.4-135.6,433.8z"/>
	<path class="st1" d="M-29.3,3217.9l5529.1-23.7c0,0-4.7-1765.5-32.4-1748.9c-471.1-33.8-905.9,240.1-1278.2,530.7
		s-741.5,619.5-1201.1,728.3c-359.1,85-735.1,25.3-1098.2-40.4c-363.2-65.7-734.8-137.4-1098.6-75.2
		C427.5,2650.8,66.8,2878.7-29.3,3217.9z"/>
	<path class="st5" d="M-29.3,3237.9l5529.1-23.7c0,0-4.7-1765.5-32.4-1748.9c-471.1-33.8-905.9,240.1-1278.2,530.7
		s-741.5,619.5-1201.1,728.3c-359.1,85-735.1,25.3-1098.2-40.4c-363.2-65.7-734.8-137.4-1098.6-75.2
		C427.5,2670.8,66.8,2898.7-29.3,3237.9z"/>
	<path class="st1" d="M-29.3,3457.3l5529.1-23.7c0,0-4.7-1765.5-32.4-1748.9c-471.1-33.8-905.9,240.1-1278.2,530.7
		s-741.5,619.5-1201.1,728.3c-359.1,85-735.1,25.3-1098.2-40.4c-363.2-65.7-734.8-137.4-1098.6-75.2
		C427.5,2890.3,66.8,3118.1-29.3,3457.3z"/>
	<path class="st6" d="M-29.3,3477.3l5529.1-23.7c0,0-4.7-1765.5-32.4-1748.9c-471.1-33.8-905.9,240.1-1278.2,530.7
		s-741.5,619.5-1201.1,728.3c-359.1,85-735.1,25.3-1098.2-40.4c-363.2-65.7-734.8-137.4-1098.6-75.2
		C427.5,2910.3,66.8,3138.1-29.3,3477.3z"/>
	<path class="st7" d="M-29.3,3732.4l5529.1-23.7c0,0-4.7-1765.5-32.4-1748.9c-471.1-33.8-905.9,240.1-1278.2,530.7
		s-741.5,619.5-1201.1,728.3c-359.1,85-735.1,25.3-1098.2-40.4s-734.8-137.4-1098.6-75.2S66.8,3393.2-29.3,3732.4z"/>
	<path class="st4" d="M-29.3,3752.4l5529.1-23.7c0,0-4.7-1765.5-32.4-1748.9c-471.1-33.8-905.9,240.1-1278.2,530.7
		s-741.5,619.5-1201.1,728.3c-359.1,85-735.1,25.3-1098.2-40.4s-734.8-137.4-1098.6-75.2S66.8,3413.2-29.3,3752.4z"/>
</g>
</svg>
