<?xml version="1.0" encoding="utf-8"?>
<!-- Generator: Adobe Illustrator 21.1.0, SVG Export Plug-In . SVG Version: 6.00 Build 0)  -->
<svg version="1.1" id="Layer_1" xmlns="http://www.w3.org/2000/svg" xmlns:xlink="http://www.w3.org/1999/xlink" x="0px" y="0px"
	 viewBox="0 0 5334 3000.3" style="enable-background:new 0 0 5334 3000.3;" xml:space="preserve">
<style type="text/css">
	.st0{clip-path:url(#SVGID_2_);fill:#28A7DF;}
	.st1{opacity:0.1;clip-path:url(#SVGID_4_);enable-background:new    ;}
	.st2{opacity:0.1;clip-path:url(#SVGID_6_);enable-background:new    ;}
</style>
<g>
	<g>
		<defs>
			<rect id="SVGID_1_" x="0.3" width="5333.7" height="3000.3"/>
		</defs>
		<clipPath id="SVGID_2_">
			<use xlink:href="#SVGID_1_"  style="overflow:visible;"/>
		</clipPath>
		<path class="st0" d="M-29.3,3237.9l5529.1-17c0,0-4.7-1263.9-32.4-1252c-471.1-24.2-905.9,171.9-1278.2,379.9
			c-372.3,208-741.5,443.5-1201.1,521.4c-359.1,60.9-735.1,18.1-1098.2-28.9c-363.2-47-734.8-98.4-1098.6-53.8
			C427.5,2831.9,66.8,2995.1-29.3,3237.9z"/>
	</g>
	<g>
		<defs>
			<rect id="SVGID_3_" x="0.3" width="5333.7" height="3000.3"/>
		</defs>
		<clipPath id="SVGID_4_">
			<use xlink:href="#SVGID_3_"  style="overflow:visible;"/>
		</clipPath>
		<path class="st1" d="M-23.3,3180.3l5529.1-12.4c0,0-4.7-920.2-32.4-911.5c-471.1-17.6-905.9,125.1-1278.2,276.6
			s-741.5,322.9-1201.1,379.6c-359.1,44.3-735.1,13.2-1098.2-21.1c-363.2-34.2-734.8-71.6-1098.6-39.2S72.8,3003.5-23.3,3180.3z"/>
	</g>
	<g>
		<defs>
			<rect id="SVGID_5_" x="0.3" width="5333.7" height="3000.3"/>
		</defs>
		<clipPath id="SVGID_6_">
			<use xlink:href="#SVGID_5_"  style="overflow:visible;"/>
		</clipPath>
		<path class="st2" d="M-2.3,3120.3l5529.1-7.3c0,0-4.7-547.3-32.4-542.2c-471.1-10.5-905.9,74.4-1278.2,164.5
			s-741.5,192.1-1201.1,225.8c-359.1,26.4-735.1,7.8-1098.2-12.5c-363.1-20.4-734.8-42.6-1098.6-23.3S93.8,3015.2-2.3,3120.3z"/>
	</g>
</g>
</svg>
