<svg xmlns="http://www.w3.org/2000/svg" width="180" height="181.236" viewBox="0 0 180 181.236"><defs><style>.a{fill:#00afff;}.b{fill:#fff;}</style></defs><g transform="translate(-642.975 -213.515)"><g transform="translate(677.416 213.515)"><path class="a" d="M579.394,495.394a31.7,31.7,0,0,1-26.409-31.058,31.021,31.021,0,0,1,1.916-10.761L533.5,441.37l-.046-.026a2.758,2.758,0,0,0-1.481-.434,2.707,2.707,0,0,0-2.733,2.672l0,.009,0,.01.01,48.082c0,.074-.012.161-.012.236s.009.163.012.254a7.13,7.13,0,0,0,3.285,5.748l.686.4,41.949,23.837a3.587,3.587,0,0,0,.48.265,2.773,2.773,0,0,0,1.11.245,2.71,2.71,0,0,0,2.711-2.557c.005-.046.015-.1.015-.136s-.01-.08-.015-.14Z" transform="translate(-529.235 -401.989)"/><path class="a" d="M617.96,402.872l21.626-12.265.2-.109a2.647,2.647,0,0,0,.029-4.389l-.431-.25-41.774-23.748-1.035-.578a7.277,7.277,0,0,0-6.273,0,7.648,7.648,0,0,0-1.021.578l-41.713,23.727a3.21,3.21,0,0,0-.558.321,2.647,2.647,0,0,0,.024,4.345l.439.25,21.4,12.2a32.343,32.343,0,0,1,49.092-.079Z" transform="translate(-537.666 -360.823)"/><path class="a" d="M703.6,491.766l-.007-48.185V443.2a2.708,2.708,0,0,0-4.056-2.127l-.2.109-21.43,12.156a31.1,31.1,0,0,1,1.947,10.862,31.674,31.674,0,0,1-26.573,31.072l.083,24.566v.012a2.715,2.715,0,0,0,4.2,2.243l.054-.026,41.859-23.812a7.05,7.05,0,0,0,.984-.564A7.152,7.152,0,0,0,703.6,491.8v-.014A.065.065,0,0,1,703.6,491.766Z" transform="translate(-592.069 -401.884)"/><path class="b" d="M641.647,466.629a21.793,21.793,0,1,1-21.8-21.464A21.626,21.626,0,0,1,641.647,466.629Z" transform="translate(-564.099 -404.176)"/></g><g transform="translate(642.975 360.371)"><g transform="translate(0 0)"><path class="b" d="M808.93,474.523l5.574-32.9h8.435l6.659,17.56,7.054-17.56h8.534l4.933,32.9h-8.533l-2.417-18.941-7.942,18.941h-3.4l-7.6-18.941-2.811,18.941Z" transform="translate(-808.93 -440.882)"/><path class="b" d="M968.663,441.622v32.9h-8.534v-32.9Z" transform="translate(-913.516 -440.882)"/><path class="b" d="M1010.207,474.523v-32.9h11.2c3.305,0,8.83.444,13.071,4.538,3.847,3.7,4.587,8.435,4.587,11.987,0,4.34-1.084,8.188-4.292,11.394a17.86,17.86,0,0,1-12.626,4.982Zm8.534-7.251h1.726c2.072,0,4.982-.2,7.2-2.368a8.968,8.968,0,0,0,2.515-6.758c0-3.058-.938-5.672-2.566-7.2-2.023-1.874-4.686-2.072-6.807-2.072h-2.071Z" transform="translate(-948.156 -440.882)"/><path class="b" d="M1129.939,441.622v25.65h10.26v7.251H1121.4v-32.9Z" transform="translate(-1025.075 -440.882)"/><path class="b" d="M1218.3,448.873h-10.162v5.475h9.619V461.6h-9.619v5.673H1218.3v7.251H1199.6v-32.9H1218.3Z" transform="translate(-1079.166 -440.882)"/><path class="b" d="M1306.166,468.719a19.674,19.674,0,0,1-25.946,0,17.212,17.212,0,0,1,0-24.614,19.674,19.674,0,0,1,25.946,0,17.211,17.211,0,0,1,0,24.614Zm-19.631-18.6a9.017,9.017,0,0,0-2.615,6.462,8.358,8.358,0,0,0,2.615,6.116,9.329,9.329,0,0,0,6.658,2.615,8.937,8.937,0,0,0,9.274-8.879,8.879,8.879,0,0,0-2.664-6.314,9.849,9.849,0,0,0-6.61-2.614A9.472,9.472,0,0,0,1286.535,450.123Z" transform="translate(-1131.346 -439.222)"/></g></g></g></svg>