<svg xmlns="http://www.w3.org/2000/svg" width="260" height="68.809" viewBox="0 0 260 68.809"><defs><style>.a{fill:#fff;}</style></defs><g transform="translate(-534.416 -366.515)"><g transform="translate(534.416 366.515)"><path class="a" d="M557.835,471.975a18.074,18.074,0,0,1-15.058-17.709,17.688,17.688,0,0,1,1.093-6.135l-12.2-6.959-.026-.015a1.573,1.573,0,0,0-.844-.247,1.543,1.543,0,0,0-1.558,1.523v.011l.006,27.415c0,.042-.007.092-.007.135s0,.093.007.145a4.065,4.065,0,0,0,1.873,3.278l.391.228,23.918,13.591a2.038,2.038,0,0,0,.274.151,1.58,1.58,0,0,0,.633.14,1.545,1.545,0,0,0,1.546-1.458c0-.026.009-.056.009-.078s-.006-.046-.009-.08Z" transform="translate(-529.235 -418.718)"/><path class="a" d="M586.979,384.8l12.33-6.993.112-.062a1.509,1.509,0,0,0,.016-2.5l-.246-.142-23.818-13.54-.59-.33a4.149,4.149,0,0,0-3.577,0,4.363,4.363,0,0,0-.582.329l-23.783,13.528a1.83,1.83,0,0,0-.318.183,1.509,1.509,0,0,0,.014,2.477l.25.142,12.2,6.954a18.441,18.441,0,0,1,27.991-.045Z" transform="translate(-541.198 -360.823)"/><path class="a" d="M681.974,469.819l0-27.474v-.219a1.544,1.544,0,0,0-2.312-1.213l-.112.062-12.219,6.931a17.729,17.729,0,0,1,1.11,6.193,18.059,18.059,0,0,1-15.151,17.716l.048,14.007v.007a1.548,1.548,0,0,0,2.394,1.279l.031-.015,23.867-13.577a4.016,4.016,0,0,0,.561-.322,4.078,4.078,0,0,0,1.788-3.359v-.008A.038.038,0,0,1,681.974,469.819Z" transform="translate(-618.382 -418.571)"/><path class="a" d="M622.914,457.4a12.426,12.426,0,1,1-12.427-12.238A12.331,12.331,0,0,1,622.914,457.4Z" transform="translate(-578.698 -421.795)"/></g><g transform="translate(615.733 384.07)"><g transform="translate(0 0)"><path class="a" d="M808.93,474.282l5.533-32.66h8.373l6.611,17.432,7-17.432h8.471l4.9,32.66h-8.471l-2.4-18.8-7.884,18.8h-3.378l-7.541-18.8-2.791,18.8Z" transform="translate(-808.93 -440.887)"/><path class="a" d="M968.6,441.622v32.66h-8.471v-32.66Z" transform="translate(-913.857 -440.887)"/><path class="a" d="M1010.207,474.282v-32.66h11.115c3.281,0,8.765.441,12.976,4.5,3.819,3.672,4.553,8.373,4.553,11.9,0,4.309-1.076,8.128-4.26,11.311a17.729,17.729,0,0,1-12.534,4.945Zm8.471-7.2h1.713c2.057,0,4.945-.2,7.151-2.35a8.9,8.9,0,0,0,2.5-6.708c0-3.036-.932-5.631-2.547-7.149-2.008-1.861-4.652-2.056-6.757-2.056h-2.056Z" transform="translate(-948.61 -440.887)"/><path class="a" d="M1129.876,441.622v25.462h10.185v7.2H1121.4v-32.66Z" transform="translate(-1025.78 -440.887)"/><path class="a" d="M1218.162,448.82h-10.088v5.435h9.549v7.2h-9.549v5.631h10.088v7.2H1199.6v-32.66h18.558Z" transform="translate(-1080.047 -440.887)"/><path class="a" d="M1305.939,468.5a19.53,19.53,0,0,1-25.756,0,17.087,17.087,0,0,1,0-24.434,19.53,19.53,0,0,1,25.756,0,17.085,17.085,0,0,1,0,24.434Zm-19.487-18.46a8.951,8.951,0,0,0-2.6,6.415,8.3,8.3,0,0,0,2.6,6.071,9.261,9.261,0,0,0,6.609,2.6,8.871,8.871,0,0,0,9.206-8.814,8.814,8.814,0,0,0-2.644-6.267,9.777,9.777,0,0,0-6.562-2.595A9.4,9.4,0,0,0,1286.451,450.043Z" transform="translate(-1132.397 -439.222)"/></g></g></g></svg>