<?xml version="1.0" encoding="utf-8"?>
<!-- Generator: Adobe Illustrator 21.1.0, SVG Export Plug-In . SVG Version: 6.00 Build 0)  -->
<svg version="1.1" id="Layer_1" xmlns="http://www.w3.org/2000/svg" xmlns:xlink="http://www.w3.org/1999/xlink" x="0px" y="0px"
	 viewBox="0 0 180 180" style="enable-background:new 0 0 180 180;" xml:space="preserve">
<style type="text/css">
	.st0{fill:none;}
	.st1{fill:#FFFFFF;}
</style>
<g transform="translate(-154 -994)">
	<path class="st0" d="M204,994h80c27.6,0,50,22.4,50,50v80c0,27.6-22.4,50-50,50h-80c-27.6,0-50-22.4-50-50v-80
		C154,1016.4,176.4,994,204,994z"/>
	<g transform="translate(189 1022.916)">
		<path class="st1" d="M49.5,92.1c-15-2.5-26-15.5-26-30.6c0-3.6,0.6-7.2,1.9-10.6l-21.1-12l0,0c-0.4-0.3-0.9-0.4-1.5-0.4
			C1.2,38.4,0,39.5,0,41v0v0l0,47.4c0,0.1,0,0.2,0,0.2s0,0.2,0,0.3c0.1,2.3,1.3,4.4,3.2,5.7L3.9,95l41.4,23.5
			c0.2,0.1,0.3,0.2,0.5,0.3c0.3,0.2,0.7,0.2,1.1,0.2c1.4,0,2.6-1.1,2.7-2.5c0,0,0-0.1,0-0.1s0-0.1,0-0.1L49.5,92.1z"/>
		<path class="st1" d="M79.2,41.5l21.3-12.1l0.2-0.1c1.2-0.8,1.5-2.4,0.7-3.6c-0.2-0.3-0.4-0.5-0.7-0.7l-0.4-0.2L59.1,1.3l-1-0.6
			c-2-0.9-4.2-0.9-6.2,0c-0.3,0.2-0.7,0.4-1,0.6L9.8,24.7c-0.2,0.1-0.4,0.2-0.6,0.3c-1.2,0.8-1.5,2.5-0.6,3.6
			c0.2,0.3,0.4,0.5,0.7,0.6l0.4,0.2l21.1,12c11.5-13.4,31.6-15,45-3.5C77,39.1,78.1,40.2,79.2,41.5z"/>
		<path class="st1" d="M110,88.6l0-47.5v-0.4c-0.1-1.5-1.4-2.6-2.9-2.5c-0.4,0-0.8,0.2-1.1,0.4l-0.2,0.1l-21.1,12
			c1.3,3.4,1.9,7.1,1.9,10.7c-0.1,15.2-11.2,28.2-26.2,30.6l0.1,24.2v0c0,1.5,1.2,2.7,2.7,2.6c0.5,0,1-0.2,1.4-0.4l0.1,0L105.9,95
			c0.3-0.2,0.7-0.3,1-0.6C108.8,93.2,110,91,110,88.6L110,88.6C110,88.7,110,88.7,110,88.6z"/>
		<path class="st1" d="M76.5,61.6c0.2,11.9-9.3,21.6-21.2,21.8c-11.9,0.2-21.6-9.3-21.8-21.2c-0.2-11.9,9.3-21.6,21.2-21.8
			c0.1,0,0.2,0,0.3,0C66.8,40.3,76.4,49.8,76.5,61.6C76.5,61.6,76.5,61.6,76.5,61.6z"/>
	</g>
</g>
</svg>
